<svg width="400" height="400" viewBox="0 0 400 400" fill="none" xmlns="http://www.w3.org/2000/svg">
<g clip-path="url(#clip0_2085_16848)">
<rect width="400" height="400" fill="url(#paint0_linear_2085_16848)"/>
</g>
<g clip-path="url(#clip1_2085_16848)">
<path d="M216.471 292.134C207.594 292.13 198.933 289.418 191.659 284.365C184.385 279.313 178.85 272.164 175.802 263.886L144.95 179.75C142.929 174.435 141.99 168.773 142.188 163.095C142.386 157.416 143.717 151.833 146.104 146.669C148.491 141.505 151.887 136.863 156.095 133.012C160.302 129.161 165.237 126.177 170.615 124.234C175.992 122.29 181.704 121.426 187.421 121.691C193.137 121.956 198.743 123.345 203.914 125.778C209.086 128.21 213.72 131.638 217.547 135.862C221.375 140.085 224.32 145.022 226.212 150.384L257.054 234.52C259.429 241.001 260.196 247.956 259.291 254.795C258.385 261.633 255.834 268.155 251.853 273.807C247.871 279.459 242.577 284.076 236.418 287.266C230.259 290.456 223.417 292.126 216.471 292.134ZM185.6 144.693C182.304 144.704 179.059 145.5 176.137 147.015C173.215 148.53 170.703 150.72 168.81 153.399C166.918 156.079 165.701 159.171 165.262 162.415C164.823 165.658 165.175 168.959 166.287 172.04L197.129 256.185C199.07 261.164 202.899 265.189 207.795 267.396C212.691 269.603 218.264 269.816 223.316 267.99C228.368 266.163 232.498 262.442 234.818 257.626C237.139 252.81 237.465 247.282 235.727 242.23L204.885 158.085C203.439 154.157 200.814 150.764 197.366 148.363C193.918 145.962 189.812 144.668 185.6 144.655V144.693Z" fill="white"/>
<path d="M216.397 292.153C210.091 292.15 203.863 290.771 198.153 288.115L116.427 250.269C106.168 245.379 98.2648 236.67 94.4313 226.031C90.5977 215.392 91.1433 203.681 95.9497 193.439C100.756 183.197 109.436 175.249 120.105 171.321C130.775 167.392 142.575 167.799 152.944 172.454L234.669 210.291C243.581 214.431 250.806 221.464 255.151 230.229C259.496 238.995 260.702 248.969 258.569 258.507C256.437 268.044 251.094 276.575 243.422 282.692C235.75 288.809 226.208 292.146 216.368 292.153H216.397ZM134.738 190.964C130.043 190.936 125.48 192.506 121.809 195.412C118.138 198.319 115.581 202.386 114.563 206.936C113.544 211.487 114.126 216.247 116.212 220.423C118.298 224.6 121.762 227.941 126.027 229.89L207.743 267.727C210.195 268.922 212.863 269.619 215.59 269.778C218.317 269.937 221.049 269.554 223.625 268.651C226.201 267.749 228.57 266.346 230.594 264.523C232.617 262.701 234.254 260.496 235.409 258.038C236.564 255.58 237.213 252.918 237.319 250.207C237.425 247.497 236.986 244.792 236.027 242.253C235.067 239.713 233.608 237.388 231.733 235.416C229.858 233.443 227.605 231.861 225.107 230.763L143.382 192.879C140.677 191.62 137.726 190.966 134.738 190.964Z" fill="white"/>
<path d="M267.279 245.854C260.974 245.847 254.747 244.468 249.035 241.816L167.31 203.97C156.918 199.158 148.876 190.444 144.955 179.744C141.033 169.045 141.552 157.237 146.399 146.918C151.245 136.6 160.021 128.615 170.796 124.721C181.571 120.827 193.463 121.343 203.855 126.155L285.58 163.992C294.492 168.132 301.717 175.165 306.062 183.93C310.407 192.696 311.613 202.67 309.48 212.208C307.348 221.745 302.005 230.276 294.333 236.393C286.661 242.51 277.119 245.847 267.279 245.854ZM176.91 183.544L258.625 221.381C261.078 222.576 263.746 223.273 266.473 223.432C269.2 223.591 271.931 223.208 274.508 222.306C277.084 221.403 279.453 220 281.476 218.178C283.5 216.355 285.137 214.15 286.292 211.692C287.447 209.234 288.096 206.572 288.202 203.861C288.308 201.151 287.869 198.446 286.909 195.907C285.95 193.367 284.49 191.043 282.615 189.07C280.74 187.097 278.488 185.515 275.99 184.417L194.265 146.58C189.328 144.295 183.68 144.051 178.562 145.901C173.444 147.751 169.276 151.544 166.974 156.446C164.673 161.348 164.426 166.956 166.29 172.038C168.153 177.12 171.973 181.259 176.91 183.544Z" fill="white"/>
</g>
<defs>
<linearGradient id="paint0_linear_2085_16848" x1="20.7063" y1="1.11438" x2="376.819" y2="399.781" gradientUnits="userSpaceOnUse">
<stop stop-color="#252525"/>
<stop offset="1"/>
</linearGradient>
<clipPath id="clip0_2085_16848">
<rect width="400" height="400" fill="white"/>
</clipPath>
<clipPath id="clip1_2085_16848">
<rect width="219.072" height="183.409" fill="white" transform="translate(91.467 108.744)"/>
</clipPath>
</defs>
</svg>
