<svg width="200" height="200" viewBox="0 0 200 200" fill="none" xmlns="http://www.w3.org/2000/svg">
<g clip-path="url(#clip0_10_485)">
<path d="M200 100C200 44.7715 155.228 0 100 0C44.7715 0 0 44.7715 0 100C0 155.228 44.7715 200 100 200C155.228 200 200 155.228 200 100Z" fill="black"/>
<path fill-rule="evenodd" clip-rule="evenodd" d="M142.324 40C142.324 63.4455 123.341 82.4513 99.9231 82.4513C88.3127 82.4513 77.7911 77.7776 70.1333 70.2071C77.7176 77.8769 82.4013 88.4273 82.4013 100.073C82.4013 111.794 77.6547 122.407 69.9813 130.09L40 100.073V57.6217C51.6888 57.6217 62.2728 62.3568 69.9428 70.0156L99.9231 40H142.324ZM130.057 129.986C137.727 137.645 148.311 142.38 160 142.38V99.9291L130.019 69.9125C122.345 77.595 117.599 88.2078 117.599 99.9291C117.599 111.538 122.252 122.058 129.794 129.721C122.143 122.193 111.651 117.549 100.077 117.549C76.6594 117.549 57.676 136.555 57.676 160.001H100.077L130.057 129.986Z" fill="#55E794"/>
</g>
<defs>
<clipPath id="clip0_10_485">
<rect width="200" height="200" fill="white"/>
</clipPath>
</defs>
</svg>
